<?xml version="1.0" standalone="no"?>
<!DOCTYPE svg PUBLIC "-//W3C//DTD SVG 20010904//EN"
 "http://www.w3.org/TR/2001/REC-SVG-20010904/DTD/svg10.dtd">
<svg version="1.0" xmlns="http://www.w3.org/2000/svg"
 width="406.000000pt" height="245.000000pt" viewBox="0 0 406.000000 245.000000"
 preserveAspectRatio="xMidYMid meet">

<g transform="translate(0.000000,245.000000) scale(0.100000,-0.100000)"
fill="#000000" stroke="none">
<path d="M1930 2083 c0 -5 12 -16 25 -26 19 -13 25 -15 25 -4 0 7 -5 18 -12
25 -13 13 -38 16 -38 5z"/>
<path d="M1986 2058 c-3 -18 -7 -38 -8 -44 -1 -5 -13 -8 -28 -6 -16 2 -35 -4
-50 -16 -33 -27 -20 -38 20 -17 40 20 74 12 60 -15 -14 -26 -13 -67 1 -53 6 6
11 39 11 73 0 41 3 58 9 49 7 -12 9 -12 9 1 0 8 3 25 6 38 5 16 2 22 -9 22 -9
0 -17 -13 -21 -32z"/>
<path d="M2037 2072 c-9 -10 -15 -27 -15 -38 2 -18 5 -19 50 -10 26 6 48 14
48 18 0 19 -35 20 -64 4 l-31 -18 29 31 c21 22 25 31 14 31 -8 0 -22 -8 -31
-18z"/>
<path d="M1885 2051 c-7 -13 2 -18 48 -26 43 -8 50 6 12 23 -31 14 -52 15 -60
3z"/>
<path d="M1233 2023 c9 -2 23 -2 30 0 6 3 -1 5 -18 5 -16 0 -22 -2 -12 -5z"/>
<path d="M2748 2023 c6 -2 18 -2 25 0 6 3 1 5 -13 5 -14 0 -19 -2 -12 -5z"/>
<path d="M1315 2001 c22 -10 69 -49 105 -86 36 -36 82 -75 102 -86 47 -24 115
-34 148 -21 22 8 20 10 -25 16 -74 12 -111 30 -193 98 -76 63 -134 98 -162 98
-8 0 3 -9 25 -19z"/>
<path d="M2653 1996 c-23 -13 -69 -47 -103 -75 -78 -65 -123 -88 -191 -97 -40
-5 -48 -9 -34 -15 33 -13 78 -10 129 7 35 12 69 38 131 100 52 52 95 87 117
93 20 5 25 10 13 10 -11 0 -39 -10 -62 -23z"/>
<path d="M2023 2003 c-15 -5 -17 -61 -3 -83 15 -25 25 -1 12 33 l-11 32 29
-32 c16 -18 32 -28 35 -23 3 6 -5 21 -19 35 -28 28 -19 32 24 10 26 -14 30
-14 30 -1 0 28 -59 45 -97 29z"/>
<path d="M998 1991 c-97 -32 -147 -111 -99 -155 24 -22 56 -14 72 17 12 22 12
22 -9 4 -43 -39 -82 7 -48 57 30 47 84 70 155 69 79 -2 147 -24 278 -92 53
-28 99 -48 101 -46 10 9 -147 100 -211 122 -75 27 -195 38 -239 24z"/>
<path d="M2812 1980 c-83 -22 -173 -67 -223 -111 -30 -27 -25 -25 51 15 212
111 337 129 420 60 39 -33 53 -59 45 -84 -8 -25 -50 -27 -64 -2 -6 9 -11 12
-11 5 0 -14 27 -43 41 -43 29 0 49 22 49 54 0 101 -143 151 -308 106z"/>
<path d="M1936 1961 c-10 -11 -16 -25 -14 -32 2 -7 14 1 27 19 24 35 15 44
-13 13z"/>
<path d="M1528 1924 c19 -36 69 -72 109 -78 21 -4 74 0 118 9 44 8 94 15 110
15 32 0 91 -31 112 -59 9 -11 12 -12 13 -3 0 24 -56 70 -95 78 -21 4 -73 2
-114 -5 -141 -21 -177 -15 -235 38 -25 23 -27 23 -18 5z"/>
<path d="M2441 1902 c-30 -24 -42 -27 -110 -27 -42 0 -108 4 -147 9 -59 7 -76
6 -105 -9 -33 -18 -58 -42 -59 -58 0 -5 14 3 30 17 44 37 90 42 196 22 51 -10
106 -15 121 -12 40 9 89 41 103 65 13 26 12 26 -29 -7z"/>
<path d="M3264 1641 c-18 -11 -35 -25 -39 -32 -4 -6 6 -1 23 11 19 14 38 21
52 17 13 -3 20 -1 17 6 -6 18 -21 18 -53 -2z"/>
<path d="M2314 1603 c-12 -2 -32 -16 -45 -30 l-24 -26 32 23 c60 44 102 11
114 -90 l6 -55 2 68 c1 60 -2 71 -24 92 -13 14 -28 24 -32 24 -4 -1 -18 -4
-29 -6z"/>
<path d="M788 1584 c-38 -20 -36 -29 2 -9 34 17 68 19 105 5 25 -10 26 -12 13
-33 -8 -12 -27 -56 -43 -97 -43 -115 -46 -118 -108 -113 -49 3 -46 2 38 -22
92 -26 175 -29 197 -7 8 8 2 8 -24 0 -25 -7 -50 -7 -91 2 -31 6 -57 14 -57 17
0 3 9 17 20 33 11 15 34 64 51 109 17 44 35 84 41 87 13 8 56 -34 79 -78 20
-39 26 -123 9 -133 -5 -3 -10 -12 -10 -18 0 -7 9 2 20 18 37 56 15 154 -48
207 -24 20 -28 28 -19 38 10 10 8 10 -9 2 -12 -7 -26 -7 -35 -1 -22 14 -101
10 -131 -7z"/>
<path d="M2611 1586 c-9 -11 -8 -14 6 -12 27 2 28 -47 4 -97 -12 -23 -43 -66
-70 -96 l-48 -54 -6 85 c-7 83 4 148 24 148 5 0 9 5 9 11 0 8 -5 7 -15 -1 -21
-17 -62 -76 -47 -66 8 5 12 -23 14 -104 l3 -111 61 73 c78 94 94 120 104 163
14 61 -9 97 -39 61z"/>
<path d="M3152 1482 c-20 -42 -38 -86 -40 -97 -4 -28 -36 -70 -53 -70 -22 0
-13 57 12 78 12 9 17 17 11 17 -19 0 -52 -52 -52 -81 0 -38 17 -45 46 -18 l24
22 0 -22 c0 -14 5 -21 13 -18 7 2 11 15 9 30 -4 34 22 127 54 189 13 26 22 48
19 48 -3 0 -22 -35 -43 -78z"/>
<path d="M2241 1524 c0 -11 3 -14 6 -6 3 7 2 16 -1 19 -3 4 -6 -2 -5 -13z"/>
<path d="M1867 1502 c-23 -25 -21 -87 4 -141 15 -35 17 -46 7 -53 -21 -13 -37
-9 -58 12 -25 25 -25 31 2 66 l22 29 -27 -24 c-59 -53 -17 -120 58 -92 25 9
40 9 54 2 29 -16 57 -13 72 6 13 15 12 15 -5 6 -55 -30 -136 60 -136 153 0 20
17 44 32 44 10 0 11 -53 1 -66 -5 -5 0 -1 10 10 21 23 19 59 -4 64 -8 1 -23
-6 -32 -16z"/>
<path d="M2410 1420 c-6 -11 -8 -20 -6 -20 3 0 10 9 16 20 6 11 8 20 6 20 -3
0 -10 -9 -16 -20z"/>
<path d="M2373 1374 c-7 -27 -15 -58 -18 -69 -6 -18 -5 -18 5 -2 23 36 37 83
31 101 -5 13 -10 6 -18 -30z"/>
<path d="M1153 1388 c-25 -28 -36 -59 -27 -82 8 -22 23 -20 51 6 l23 21 0 -21
c0 -22 14 -30 24 -13 4 5 1 11 -6 13 -11 4 -8 19 17 81 6 13 2 17 -16 17 -18
0 -21 -2 -10 -9 12 -8 10 -16 -12 -50 -15 -23 -34 -41 -42 -41 -22 0 -19 43 6
74 25 32 20 34 -8 4z"/>
<path d="M1325 1400 c-4 -6 1 -7 11 -3 18 7 18 -4 -2 -81 -3 -15 -2 -26 4 -26
5 0 13 17 17 38 3 20 9 47 12 60 4 17 1 22 -15 22 -12 0 -24 -4 -27 -10z"/>
<path d="M1408 1403 c18 -7 15 -37 -9 -69 l-21 -29 26 28 c30 33 35 77 9 76
-11 0 -13 -3 -5 -6z"/>
<path d="M1558 1403 c6 -2 12 -11 12 -19 0 -9 5 -12 10 -9 19 12 10 35 -12 34
-13 0 -17 -3 -10 -6z"/>
<path d="M1949 1383 l-24 -28 27 23 c19 17 33 22 48 17 15 -5 20 -4 16 4 -12
19 -42 12 -67 -16z"/>
<path d="M2696 1388 c-39 -60 -22 -115 27 -89 l22 11 -23 -6 c-28 -7 -36 12
-24 57 5 21 16 35 27 37 13 3 16 0 12 -12 -4 -9 -2 -16 2 -16 11 0 22 26 14
34 -14 13 -43 5 -57 -16z"/>
<path d="M2847 1404 c8 -4 6 -20 -7 -60 -21 -61 -13 -73 13 -19 23 48 22 85 0
84 -10 0 -13 -3 -6 -5z"/>
<path d="M2894 1394 c-18 -14 -18 -15 4 -4 25 12 26 11 10 -42 -12 -41 -1 -67
22 -53 9 6 9 10 -1 16 -12 7 -11 16 2 54 15 42 15 45 0 45 -10 0 -26 -7 -37
-16z"/>
<path d="M3239 1383 c-6 -16 -13 -43 -16 -60 -7 -42 10 -43 49 -6 l29 27 -16
-44 c-9 -25 -22 -55 -30 -67 -22 -33 -18 -40 5 -11 15 20 80 170 80 185 0 13
-20 -1 -25 -17 -8 -25 -53 -80 -66 -80 -14 0 -11 38 6 70 9 18 11 30 5 30 -6
0 -15 -12 -21 -27z"/>
<path d="M1520 1370 c-6 -12 -10 -33 -8 -48 4 -33 38 -42 59 -15 13 16 12 17
-3 5 -26 -21 -40 -5 -36 39 4 45 3 47 -12 19z"/>
<path d="M685 1320 c-11 -18 5 -30 38 -29 l32 1 -30 7 c-16 4 -29 12 -27 19 3
15 -5 16 -13 2z"/>
<path d="M3127 1243 c-4 -3 -7 -17 -7 -29 0 -40 58 -58 96 -29 17 13 16 13
-14 2 -41 -15 -67 0 -67 37 1 29 1 29 -8 19z"/>
<path d="M1648 1188 c-13 -13 -15 -16 -5 -8 23 18 107 19 160 1 l37 -13 -32
-45 c-57 -80 -137 -161 -182 -182 -58 -29 -116 -28 -144 2 -22 23 -29 73 -14
93 4 5 -1 1 -10 -9 -26 -28 -23 -73 7 -102 67 -68 213 7 333 170 l22 30 -20
-60 c-18 -52 -41 -165 -34 -165 1 0 27 37 57 83 46 68 147 183 147 167 0 -3
-11 -32 -25 -65 -43 -105 -29 -204 24 -175 27 14 27 20 -1 17 -22 -2 -23 1
-23 63 0 65 25 135 72 200 l18 25 -30 -22 c-43 -30 -146 -140 -180 -191 -15
-23 -30 -40 -32 -38 -8 8 35 146 56 182 15 25 17 36 8 39 -99 33 -177 34 -209
3z"/>
<path d="M2275 1021 c-36 -7 -64 -55 -47 -80 5 -9 15 -15 21 -13 6 1 11 -9 11
-22 0 -14 5 -37 10 -51 7 -18 7 -33 -2 -48 -10 -20 -10 -21 5 -8 20 16 21 42
5 87 -9 26 -9 38 0 56 11 20 34 90 29 87 -1 -1 -15 -4 -32 -8z m0 -47 c0 -19
-6 -30 -17 -32 -14 -3 -18 3 -18 26 0 16 3 32 7 36 14 13 28 -1 28 -30z"/>
<path d="M2041 994 c-39 -50 -17 -118 26 -83 22 19 44 74 37 93 -9 24 -40 19
-63 -10z m47 -15 c4 -32 -20 -64 -42 -56 -20 8 -21 36 0 65 19 28 38 24 42 -9z"/>
<path d="M2134 1008 c-4 -7 -3 -8 4 -4 15 9 16 -32 2 -70 -18 -45 -2 -40 18 7
10 24 17 52 14 61 -5 20 -27 24 -38 6z"/>
<path d="M2187 1013 c-4 -3 -7 -10 -7 -14 0 -9 39 1 46 12 6 10 -29 12 -39 2z"/>
<path d="M2353 998 c-25 -28 -36 -59 -27 -82 8 -21 17 -20 41 2 10 9 14 14 9
10 -40 -31 -49 29 -11 67 13 14 21 25 16 25 -4 0 -17 -10 -28 -22z"/>
<path d="M2409 1011 c11 -7 11 -12 0 -32 -29 -52 -14 -100 19 -63 16 17 16 17
0 5 -15 -12 -18 -11 -18 3 0 9 7 33 15 53 19 45 19 43 -7 43 -17 0 -19 -3 -9
-9z"/>
<path d="M2474 1008 c-4 -7 -3 -8 4 -4 17 10 15 -17 -3 -61 -18 -42 -18 -43
-6 -43 5 0 15 20 22 44 7 25 16 43 20 40 4 -2 13 4 20 14 13 15 12 16 -3 3
-16 -12 -18 -11 -18 3 0 18 -25 22 -36 4z"/>
<path d="M2553 998 c-1 -13 -5 -40 -9 -60 -5 -30 -3 -38 9 -38 8 0 21 8 28 18
13 16 13 16 -5 2 -18 -14 -18 -13 -13 20 3 19 8 45 12 58 5 15 3 22 -6 22 -8
0 -15 -10 -16 -22z"/>
<path d="M2165 867 c-12 -10 -16 -21 -12 -38 9 -35 97 -80 97 -49 0 6 -11 10
-23 10 -43 0 -72 51 -45 78 16 16 6 15 -17 -1z"/>
<path d="M1531 736 c2 -2 40 -6 84 -9 48 -3 72 -2 60 3 -19 8 -153 14 -144 6z"/>
<path d="M1590 664 c-11 -25 -20 -51 -20 -58 0 -6 -7 -23 -16 -36 -15 -22 -15
-23 -1 -10 15 14 70 150 61 150 -3 0 -14 -21 -24 -46z"/>
<path d="M2102 615 c-17 -37 -26 -105 -15 -105 5 0 10 15 11 33 1 19 6 46 12
62 13 35 7 43 -8 10z"/>
<path d="M2318 618 c-24 -45 -28 -99 -8 -106 12 -4 13 -3 2 10 -10 13 -9 25 8
67 20 53 20 68 -2 29z"/>
<path d="M1665 576 c-19 -29 -17 -57 5 -64 13 -5 13 -3 1 12 -11 13 -11 22 -3
41 14 29 27 32 42 8 10 -17 10 -16 8 2 -5 29 -34 30 -53 1z"/>
<path d="M1771 569 c-14 -41 -14 -59 0 -59 6 0 9 7 5 15 -3 8 -1 27 5 41 5 15
8 29 5 31 -2 2 -9 -10 -15 -28z"/>
<path d="M1830 581 c-12 -24 -13 -71 -1 -71 4 0 6 11 4 24 -3 13 0 33 6 45 7
11 9 21 7 21 -3 0 -10 -9 -16 -19z"/>
<path d="M1913 594 c3 -3 -1 -25 -9 -47 -12 -37 -12 -40 1 -23 8 11 15 25 15
32 0 7 3 19 6 28 4 10 1 16 -7 16 -7 0 -10 -3 -6 -6z"/>
<path d="M1957 594 c9 -4 9 -13 2 -30 -11 -30 -12 -54 -1 -54 4 0 7 10 7 23 1
12 4 32 9 45 6 18 4 22 -11 21 -10 0 -13 -3 -6 -5z"/>
<path d="M2222 588 c-1 -7 -5 -28 -8 -45 -3 -18 -2 -33 2 -33 5 0 9 12 10 28
0 15 4 35 8 45 5 9 4 17 -1 17 -5 0 -10 -6 -11 -12z"/>
<path d="M2390 571 c-6 -16 -10 -38 -7 -48 4 -14 5 -13 6 5 0 13 6 32 12 44 6
11 9 22 6 24 -2 3 -10 -9 -17 -25z"/>
<path d="M2476 591 c-3 -5 2 -8 12 -7 11 1 17 -6 16 -21 0 -12 3 -20 8 -17 4
3 8 16 8 30 0 17 -5 24 -19 24 -11 0 -22 -4 -25 -9z"/>
<path d="M2578 575 c-4 -16 -9 -39 -13 -50 -3 -11 1 -7 10 8 9 16 15 38 13 50
-3 19 -5 17 -10 -8z"/>
<path d="M2622 555 c-1 -25 1 -45 5 -45 5 0 8 12 9 28 0 15 4 35 8 45 6 11 4
17 -5 17 -9 0 -15 -15 -17 -45z"/>
<path d="M2042 578 c-14 -14 -16 -68 -3 -68 4 0 6 11 3 25 -2 14 1 32 8 40 15
18 9 20 -8 3z"/>
<path d="M1411 560 c-1 -34 16 -50 54 -49 l30 0 -35 12 c-23 8 -37 20 -41 37
l-7 25 -1 -25z"/>
<path d="M2161 558 c-5 -13 -6 -29 -4 -35 9 -24 18 -13 18 22 0 41 -3 43 -14
13z"/>
<path d="M1510 530 c-9 -6 -10 -10 -3 -10 6 0 15 5 18 10 8 12 4 12 -15 0z"/>
<path d="M2456 525 c4 -8 10 -15 15 -15 4 0 6 7 3 15 -4 8 -10 15 -15 15 -4 0
-6 -7 -3 -15z"/>
<path d="M1582 310 c0 -19 2 -27 5 -17 2 9 2 25 0 35 -3 9 -5 1 -5 -18z"/>
<path d="M1722 316 c7 -8 15 -12 17 -11 5 6 -10 25 -20 25 -5 0 -4 -6 3 -14z"/>
<path d="M1833 290 c2 -8 12 -16 23 -17 13 -2 15 -1 4 4 -8 3 -19 11 -23 17
-6 7 -7 6 -4 -4z"/>
<path d="M2070 280 c-9 -6 -10 -10 -3 -10 6 0 15 5 18 10 8 12 4 12 -15 0z"/>
<path d="M2215 280 c-16 -7 -17 -9 -3 -9 9 -1 20 4 23 9 7 11 7 11 -20 0z"/>
<path d="M2388 278 c5 -5 16 -8 23 -6 8 3 3 7 -10 11 -17 4 -21 3 -13 -5z"/>
</g>
</svg>
