<?xml version="1.0" standalone="no"?>
<!DOCTYPE svg PUBLIC "-//W3C//DTD SVG 20010904//EN"
 "http://www.w3.org/TR/2001/REC-SVG-20010904/DTD/svg10.dtd">
<svg version="1.0" xmlns="http://www.w3.org/2000/svg"
 width="1800.000000pt" height="1028.000000pt" viewBox="0 0 1800.000000 1028.000000"
 preserveAspectRatio="xMidYMid meet">

<g transform="translate(0.000000,1028.000000) scale(0.100000,-0.100000)"
fill="#000000" stroke="none">
<path d="M13608 9442 c-98 -50 -184 -119 -298 -239 -109 -115 -165 -198 -375
-558 -87 -148 -192 -322 -233 -385 -133 -201 -264 -307 -396 -317 -56 -5 -64
-3 -94 22 -61 51 -81 125 -42 160 61 55 41 175 -30 175 -86 0 -118 -172 -53
-279 42 -67 100 -104 172 -109 160 -12 291 88 463 349 31 46 119 194 198 329
172 295 306 499 397 606 65 75 229 211 241 200 3 -3 -33 -45 -80 -94 -180
-187 -254 -331 -418 -817 -97 -288 -143 -405 -187 -481 -57 -96 -52 -105 24
-45 95 77 243 245 317 360 24 37 107 177 186 311 201 346 295 484 404 595 88
89 231 195 265 195 9 0 -16 -30 -60 -72 -175 -169 -305 -396 -444 -778 -79
-218 -147 -374 -203 -468 -49 -82 -125 -157 -150 -147 -36 14 -119 18 -127 5
-4 -7 -2 -16 6 -21 18 -11 162 -11 298 1 94 7 113 12 188 50 51 26 110 67 152
106 l68 63 17 -78 c21 -100 57 -152 120 -176 58 -22 109 -16 190 24 133 66
244 218 292 399 9 37 19 69 20 71 2 2 17 -8 34 -22 17 -15 49 -32 71 -38 47
-15 51 3 -43 -219 -38 -91 -72 -171 -75 -177 -4 -10 13 -13 67 -13 l71 0 37
83 c93 210 257 481 337 557 l37 35 -7 -35 c-13 -59 -8 -145 10 -184 25 -52 64
-70 137 -62 67 7 65 12 42 -94 -27 -127 0 -280 54 -309 69 -37 200 19 264 112
l21 32 -34 -32 c-19 -18 -51 -39 -72 -48 -35 -15 -41 -15 -63 0 -32 21 -38 50
-31 169 6 115 30 203 87 316 70 139 141 210 209 210 52 0 65 -32 58 -153 -5
-114 -26 -191 -89 -330 -22 -49 -37 -94 -34 -102 7 -20 -211 -453 -282 -560
-109 -164 -223 -255 -319 -255 -54 0 -90 18 -131 64 -41 47 -55 103 -50 201 6
116 47 183 127 205 24 6 23 7 -15 14 -162 28 -277 -129 -230 -314 21 -81 55
-126 119 -156 142 -65 339 -27 491 96 99 80 163 162 257 327 33 59 65 114 71
120 6 7 47 37 92 67 75 50 162 132 247 234 l36 42 5 -84 c7 -99 32 -162 77
-189 59 -35 124 -11 224 83 l67 62 0 -32 c0 -49 29 -100 66 -118 57 -26 101
-5 210 100 52 50 94 88 94 84 0 -4 -13 -38 -30 -76 -16 -38 -30 -71 -30 -74 0
-3 32 -6 71 -6 l71 0 16 43 c28 72 111 238 169 337 159 271 265 384 319 339
28 -23 11 -86 -73 -269 -99 -214 -113 -256 -113 -326 0 -137 81 -185 194 -115
51 32 194 224 316 426 54 89 56 93 37 75 -8 -8 -51 -73 -96 -143 -140 -223
-254 -357 -301 -357 -12 0 -25 10 -32 25 -18 40 1 101 96 306 93 203 111 260
101 331 -5 37 -14 54 -41 78 -19 16 -44 30 -55 30 -68 0 -158 -79 -264 -232
-43 -62 -82 -117 -87 -123 -5 -5 27 64 70 155 l79 165 -55 3 c-92 5 -107 -15
-226 -286 -82 -186 -131 -266 -221 -359 -82 -84 -122 -106 -150 -83 -8 7 -15
29 -15 49 0 73 43 187 189 496 l80 170 -51 3 c-72 4 -90 -2 -116 -44 l-23 -36
-30 47 c-39 62 -83 81 -151 65 -116 -28 -244 -156 -321 -320 -109 -235 -107
-231 -206 -331 -84 -84 -191 -169 -213 -169 -5 0 -8 5 -8 11 0 6 67 174 149
373 81 198 151 371 155 384 7 21 5 22 -41 22 -71 0 -88 -8 -106 -46 -17 -35
-37 -46 -37 -20 0 21 -48 74 -82 92 -40 21 -111 9 -170 -28 -63 -40 -176 -160
-216 -230 -35 -62 -62 -83 -96 -74 -62 15 -60 145 3 289 11 27 21 51 21 53 0
11 -60 1 -99 -16 -67 -31 -223 -201 -301 -327 -17 -29 -33 -53 -35 -53 -6 0
39 99 110 240 l66 132 -69 -4 c-41 -2 -77 -10 -87 -18 -10 -8 -45 -71 -77
-140 -33 -69 -69 -135 -80 -147 -52 -56 -103 -8 -148 137 -37 120 -79 175
-144 190 -88 20 -203 -28 -298 -124 -78 -78 -122 -151 -160 -264 -16 -48 -43
-109 -60 -135 -80 -124 -279 -227 -441 -227 l-59 0 68 54 c152 119 258 296
394 656 188 498 241 608 336 708 61 64 62 65 100 56 51 -11 113 -9 127 5 20
20 -4 26 -97 26 -89 0 -96 -2 -177 -42 -213 -107 -358 -280 -624 -743 -157
-274 -288 -470 -370 -555 -37 -38 -60 -59 -52 -45 8 14 34 57 57 95 73 118
134 262 260 610 40 110 91 243 113 295 76 178 174 322 252 370 32 20 46 40 27
40 -4 0 -42 -17 -84 -38z m2805 -761 c16 -6 29 -23 37 -47 48 -143 -130 -592
-261 -659 -42 -22 -57 -19 -79 18 -41 67 -19 261 49 425 59 142 145 253 205
265 11 2 22 5 23 6 1 0 13 -3 26 -8z m-2104 -50 c12 -38 12 -57 -3 -149 -46
-280 -198 -566 -301 -566 -52 0 -64 23 -65 124 0 191 102 470 216 588 49 50
54 53 95 50 42 -3 45 -5 58 -47z"/>
<path d="M1316 9445 c-202 -51 -424 -259 -508 -477 -70 -181 -77 -411 -16
-532 24 -49 72 -102 110 -122 35 -18 129 -18 173 0 42 18 118 87 155 141 46
67 112 274 109 343 -1 15 -9 -11 -19 -58 -39 -180 -105 -308 -187 -360 -108
-69 -213 -12 -252 137 -17 64 -15 267 4 359 59 287 243 499 485 560 99 25 185
15 285 -35 44 -22 91 -51 103 -64 28 -30 25 -38 -48 -126 -113 -135 -171 -246
-339 -636 -140 -324 -190 -420 -270 -506 -85 -93 -97 -97 -245 -76 -146 21
-170 21 -185 3 -10 -12 -8 -19 8 -35 20 -20 31 -21 199 -20 97 1 167 4 155 6
-13 2 -23 8 -23 13 0 4 36 29 80 55 93 53 203 153 266 241 60 85 107 181 219
454 108 263 165 385 223 478 l39 63 24 -63 c22 -59 24 -76 24 -268 0 -220 -6
-261 -57 -415 -79 -239 -227 -436 -398 -533 -63 -36 -69 -37 -190 -42 -79 -4
-118 -9 -107 -14 32 -15 256 0 329 22 201 60 379 218 469 417 51 112 70 207
76 365 7 191 -9 285 -72 423 -26 56 -49 112 -52 125 -7 28 16 54 109 125 37
28 66 53 64 55 -6 5 -134 -62 -185 -97 l-44 -29 -57 39 c-108 74 -162 92 -285
95 -74 2 -129 -1 -169 -11z"/>
<path d="M8170 9354 c-349 -151 -435 -196 -499 -263 -122 -124 -151 -276 -74
-392 33 -50 68 -69 129 -69 44 0 51 4 95 49 49 50 80 124 78 180 -1 14 -10 -9
-21 -52 -26 -97 -66 -147 -120 -147 -41 0 -81 28 -104 73 -26 49 -14 170 24
249 54 114 151 191 376 298 151 72 176 82 176 74 0 -3 -17 -28 -39 -57 -118
-160 -166 -302 -275 -817 -73 -348 -94 -413 -151 -482 -25 -30 -45 -62 -45
-72 0 -28 38 -18 80 21 83 74 369 454 553 733 124 189 119 200 52 -120 -57
-269 -88 -390 -131 -508 -44 -121 -54 -152 -48 -152 27 0 175 111 310 231 104
93 291 292 390 415 247 308 386 674 314 831 -20 45 -50 61 -89 48 -44 -14 -68
-116 -38 -160 35 -52 27 -145 -29 -312 -78 -235 -249 -495 -488 -741 -77 -80
-214 -197 -222 -190 -2 3 12 47 32 99 65 169 71 190 205 803 37 169 75 271
127 339 21 29 51 71 65 94 82 129 -38 73 -145 -69 -64 -83 -87 -127 -153 -288
-47 -115 -116 -242 -208 -380 -86 -129 -324 -454 -351 -480 l-27 -24 35 97
c20 53 79 264 131 469 131 508 166 607 249 707 32 38 42 53 34 50 -2 0 -91
-39 -198 -85z"/>
<path d="M7141 9397 c-23 -12 -62 -94 -306 -645 -32 -74 -64 -141 -71 -150
-11 -15 -13 -15 -22 9 -6 14 -22 39 -37 57 -25 29 -32 32 -86 32 -84 0 -139
-29 -229 -119 -78 -78 -115 -138 -169 -270 -55 -136 -174 -304 -252 -358 -31
-21 -34 -21 -51 -6 -22 20 -24 75 -3 133 8 23 46 111 84 194 90 199 104 244
99 317 -6 79 -32 109 -98 109 -38 0 -56 -7 -91 -34 -75 -57 -173 -177 -243
-298 -49 -85 -19 -51 63 70 84 124 176 222 209 222 30 0 55 -35 49 -68 -3 -15
-44 -111 -90 -213 -117 -253 -131 -305 -105 -391 21 -72 89 -98 164 -62 39 19
114 98 175 185 46 65 59 64 59 -7 0 -60 26 -138 56 -168 21 -20 37 -26 71 -26
62 0 105 21 172 85 32 30 61 52 64 48 4 -3 7 -18 7 -33 0 -34 37 -90 72 -109
58 -33 167 35 270 169 56 73 238 367 238 385 0 5 -33 -45 -73 -111 -158 -258
-224 -344 -306 -395 -58 -37 -81 -27 -81 35 0 99 78 289 451 1092 82 177 149
324 149 327 0 12 -114 7 -139 -6z m-474 -732 c29 -20 45 -82 37 -137 -19 -132
-76 -293 -144 -408 -62 -105 -101 -140 -158 -140 -73 0 -92 109 -48 283 72
282 217 469 313 402z"/>
<path d="M11261 9397 c-18 -9 -63 -101 -196 -401 -95 -213 -177 -392 -182
-397 -6 -6 -21 9 -40 40 -24 39 -40 52 -69 60 -81 22 -176 -21 -277 -128 -75
-80 -114 -145 -156 -261 -50 -137 -223 -370 -275 -370 -32 0 -46 19 -46 60 0
49 23 114 107 300 89 197 96 219 91 293 -4 53 -8 64 -38 90 -38 34 -77 33
-136 -3 -46 -29 -163 -163 -226 -259 -27 -41 -52 -78 -55 -81 -12 -12 33 85
98 208 39 74 69 135 67 137 -6 6 -162 -16 -169 -23 -4 -4 -33 -68 -64 -142
-139 -328 -228 -455 -370 -528 -139 -71 -228 -7 -242 175 l-6 78 74 24 c172
54 314 143 354 222 25 47 29 103 10 142 -24 51 -59 71 -125 71 -78 0 -164 -47
-261 -145 -62 -61 -86 -95 -125 -174 l-49 -98 0 -132 c0 -127 1 -133 28 -174
45 -67 78 -83 168 -78 102 5 163 35 283 142 l94 84 -39 -91 c-46 -104 -44
-108 38 -108 l53 0 48 98 c57 114 108 235 118 277 4 17 9 24 11 16 3 -8 35 32
76 95 87 136 194 247 233 242 66 -8 56 -52 -71 -332 -85 -187 -105 -263 -87
-324 26 -85 89 -113 168 -76 39 19 114 98 175 184 23 33 45 60 49 60 4 0 10
-33 13 -74 5 -75 23 -123 60 -163 15 -17 32 -23 64 -23 62 0 105 21 172 85 32
30 61 55 64 55 4 0 7 -18 7 -39 0 -49 36 -95 86 -111 55 -19 125 21 224 128
l80 86 0 -67 c0 -71 17 -120 45 -131 64 -24 139 15 231 120 91 104 88 111 -5
11 -88 -93 -125 -113 -148 -82 -32 45 -11 117 130 437 53 120 97 230 99 245 3
33 -17 39 -89 28 -36 -5 -46 -12 -54 -33 -61 -160 -201 -469 -240 -526 -81
-122 -178 -200 -224 -182 -20 7 -20 72 1 144 34 117 163 409 527 1196 31 66
54 123 51 128 -8 13 -106 9 -133 -5z m-1851 -742 c24 -62 -69 -234 -165 -307
-58 -44 -133 -83 -143 -74 -21 21 62 211 131 300 81 103 156 137 177 81z
m1390 -2 c20 -26 22 -36 17 -123 -6 -110 -41 -229 -107 -360 -51 -102 -133
-190 -176 -190 -49 0 -72 23 -79 83 -22 178 109 517 231 598 43 28 88 25 114
-8z"/>
<path d="M2438 8696 c-153 -55 -293 -227 -349 -431 -28 -103 -24 -238 9 -302
22 -42 64 -73 99 -73 39 1 108 43 176 107 38 38 67 62 63 55 -13 -22 5 -91 31
-122 20 -24 33 -30 64 -30 77 0 157 58 255 185 31 41 60 73 64 70 4 -2 10 -33
14 -69 10 -101 26 -129 88 -156 184 -79 420 100 513 390 10 30 20 58 22 62 2
4 26 -3 53 -17 27 -14 58 -25 69 -25 29 0 31 -9 14 -70 -10 -38 -13 -82 -9
-142 6 -103 34 -170 87 -206 30 -21 44 -23 114 -20 114 4 174 36 291 152 85
85 181 218 268 369 49 85 18 49 -60 -70 -134 -206 -242 -325 -337 -369 -65
-30 -105 -30 -147 -1 -51 34 -74 89 -78 183 l-4 80 84 28 c173 59 299 139 338
217 58 112 -17 233 -133 215 -105 -17 -246 -127 -338 -263 -49 -73 -64 -82
-119 -75 -14 2 -36 12 -50 22 -21 16 -25 30 -36 141 -10 91 -18 129 -32 148
-25 33 -53 37 -77 11 -16 -18 -20 -43 -26 -158 -6 -115 -11 -152 -38 -229 -82
-245 -215 -405 -310 -372 -35 12 -42 30 -42 103 0 76 44 202 152 429 50 106
93 198 96 205 7 16 -93 16 -126 -1 -31 -15 -84 -113 -162 -297 -70 -166 -125
-254 -212 -343 -131 -132 -195 -109 -148 52 26 88 70 195 170 408 39 83 71
158 71 167 0 13 -11 16 -53 16 -60 0 -89 -16 -107 -60 l-13 -31 -28 50 c-43
76 -93 95 -171 67z m1626 -22 c46 -45 -17 -196 -125 -302 -50 -48 -157 -108
-169 -96 -24 24 93 263 170 348 30 33 78 64 102 66 4 0 14 -7 22 -16z m-1498
-19 c14 -21 16 -42 11 -113 -13 -204 -169 -536 -267 -568 -47 -15 -66 -8 -86
34 -22 46 -14 185 16 292 44 153 136 315 206 361 43 28 99 25 120 -6z"/>
<path d="M5009 8695 c-118 -43 -219 -149 -293 -306 -55 -118 -69 -181 -64
-294 6 -138 46 -201 128 -199 51 2 95 28 173 102 l67 65 0 -49 c0 -66 28 -111
73 -119 57 -11 119 24 213 119 l83 84 -21 -51 c-40 -102 -39 -100 -26 -109 7
-4 37 -7 67 -6 l53 3 69 145 c38 80 76 170 85 200 9 30 57 133 106 229 49 96
87 175 86 177 -6 5 -163 -17 -170 -24 -3 -4 -29 -61 -56 -127 -74 -176 -147
-328 -183 -382 -93 -137 -206 -232 -246 -207 -14 9 -18 24 -17 65 1 63 33 146
165 437 49 108 87 202 85 209 -4 8 -24 13 -54 13 -53 0 -96 -24 -107 -60 -9
-28 -21 -25 -35 10 -7 17 -28 44 -47 60 -38 33 -74 37 -134 15z m137 -40 c41
-63 -15 -324 -107 -495 -118 -218 -215 -262 -250 -113 -11 48 5 176 33 263 42
133 131 288 199 345 42 35 102 35 125 0z"/>
<path d="M11697 8669 c-10 -6 -61 -99 -114 -207 -114 -236 -127 -266 -114
-257 23 14 -127 -343 -228 -543 -132 -261 -322 -416 -455 -372 -44 14 -102 77
-115 127 -6 21 -11 74 -11 118 0 125 51 215 122 215 35 0 46 18 14 26 -39 9
-131 -15 -174 -46 -139 -100 -110 -354 49 -434 46 -22 66 -26 144 -26 154 0
266 51 393 178 78 79 126 146 187 257 75 139 94 162 153 196 95 53 269 244
375 411 38 60 90 158 84 158 -2 0 -32 -47 -67 -104 -140 -232 -285 -392 -418
-460 l-33 -17 16 38 c53 123 294 721 297 733 4 19 -77 26 -105 9z"/>
<path d="M6329 7140 c-212 -25 -402 -114 -545 -255 -81 -81 -145 -185 -159
-260 -5 -25 -3 -23 11 10 85 198 251 302 541 340 115 15 356 18 468 6 68 -7
73 1 -42 -70 -121 -75 -223 -222 -319 -457 -60 -149 -72 -169 -110 -178 -31
-8 -31 -22 1 -30 14 -4 25 -11 25 -16 0 -36 -175 -466 -218 -535 -57 -92 -126
-165 -179 -191 -46 -23 -60 -25 -110 -19 -50 6 -63 13 -99 49 -32 31 -44 54
-54 96 -11 49 -10 61 9 110 35 92 21 179 -31 196 -33 10 -73 -41 -88 -111 -22
-108 15 -224 96 -295 57 -49 110 -70 184 -70 133 -1 255 69 356 203 63 85 167
284 230 445 54 137 62 146 152 158 42 5 52 4 52 -8 0 -8 -17 -73 -39 -144 -59
-199 -58 -211 7 -78 33 67 88 163 123 214 90 130 99 144 99 153 0 4 -27 7 -59
7 -59 0 -60 0 -83 -42 -27 -50 -68 -76 -132 -84 l-47 -7 7 39 c13 74 106 319
162 428 41 79 72 125 112 163 l54 54 121 -7 c98 -5 127 -4 158 9 67 28 75 116
13 142 -78 33 -497 55 -667 35z"/>
<path d="M9547 7108 c-9 -7 -32 -51 -51 -98 -52 -127 -296 -788 -296 -802 -1
-7 -14 13 -30 44 -36 69 -61 88 -118 88 -62 0 -109 -29 -188 -113 -74 -79
-138 -193 -169 -302 -37 -128 -126 -292 -204 -375 -51 -55 -74 -62 -92 -28
-21 39 -1 119 83 333 l82 210 1 116 c0 140 -10 159 -82 159 -41 0 -49 -5 -102
-57 -71 -72 -110 -128 -184 -268 -72 -136 -66 -113 29 112 57 135 72 179 62
185 -19 13 -117 3 -133 -13 -7 -8 -48 -106 -90 -219 -42 -113 -94 -244 -116
-293 -21 -48 -39 -95 -39 -105 0 -10 -13 -58 -30 -107 -16 -49 -30 -90 -30
-92 0 -5 94 -3 116 3 18 5 35 40 88 181 37 96 69 188 73 204 3 16 9 29 13 29
4 0 39 56 78 124 126 218 184 282 233 256 38 -21 23 -88 -80 -342 -39 -97 -76
-200 -82 -229 -13 -60 -7 -161 11 -201 28 -59 120 -61 173 -5 40 43 97 121
131 180 15 26 32 47 36 47 4 0 11 -24 15 -52 12 -100 27 -150 57 -184 25 -28
37 -34 70 -34 61 0 103 26 161 98 l52 66 7 -47 c14 -101 64 -150 134 -133 40
10 134 110 203 215 l61 93 0 -43 c0 -174 64 -282 156 -264 44 8 110 67 156
138 l33 52 7 -67 c11 -115 57 -150 142 -108 47 22 131 113 195 209 l36 54 5
-99 c7 -136 35 -173 121 -161 34 4 53 16 101 64 64 62 120 133 157 198 12 22
14 29 4 15 -165 -225 -237 -283 -263 -214 -24 62 2 166 123 494 41 113 79 218
82 233 7 27 7 27 100 27 88 0 121 9 94 26 -7 4 -45 9 -86 12 -40 3 -73 6 -73
7 0 8 72 207 89 249 l21 49 -62 -7 c-34 -4 -69 -11 -79 -16 -15 -9 -71 -142
-100 -237 -9 -33 -17 -43 -33 -43 -32 0 -96 -20 -96 -30 0 -5 20 -12 45 -16
25 -3 45 -10 45 -14 0 -12 -71 -209 -120 -330 -58 -146 -93 -212 -156 -296
-67 -89 -117 -134 -149 -134 -33 0 -40 32 -25 117 19 113 69 252 237 671 4 10
-10 12 -63 10 -68 -3 -69 -3 -90 -42 l-22 -40 -24 49 c-25 54 -55 75 -106 75
-135 0 -288 -183 -373 -450 -67 -208 -231 -433 -292 -399 -60 34 18 281 403
1264 56 143 110 284 121 313 l18 52 -58 0 c-31 0 -65 -6 -74 -12z m-440 -812
c27 -24 28 -27 27 -119 -3 -194 -87 -451 -192 -584 -47 -59 -72 -69 -107 -41
-49 38 -55 137 -19 318 34 167 117 353 185 415 46 41 68 44 106 11z m763 -8
c26 -43 26 -114 0 -236 -54 -255 -192 -532 -265 -532 -28 0 -48 30 -64 97 -37
156 102 583 223 685 12 10 36 18 54 18 26 0 36 -6 52 -32z"/>
<path d="M10920 6790 c-29 -56 -27 -124 5 -155 13 -14 33 -25 43 -25 31 0 64
44 69 94 10 81 -15 126 -68 126 -23 0 -32 -7 -49 -40z"/>
<path d="M6192 6635 c-7 -109 -63 -245 -130 -311 -88 -89 -239 -111 -332 -49
-53 36 -95 107 -109 186 -10 52 -10 50 -7 -31 3 -100 27 -164 84 -224 47 -49
88 -66 154 -66 106 1 200 73 271 208 41 78 80 225 74 280 -3 33 -4 33 -5 7z"/>
<path d="M6943 6330 c-65 -23 -95 -44 -159 -111 -57 -61 -110 -151 -150 -254
-26 -65 -28 -80 -28 -230 -1 -147 1 -163 21 -201 43 -81 123 -109 214 -75 138
52 254 222 320 469 l22 81 29 -30 c17 -16 44 -37 60 -45 24 -12 29 -20 24 -37
-39 -131 -58 -223 -59 -294 -2 -78 -1 -83 27 -112 33 -35 70 -40 114 -17 40
20 122 111 166 184 22 34 41 62 44 62 3 0 2 -26 -1 -57 -12 -113 28 -203 89
-203 55 0 136 67 197 162 32 51 17 53 -17 3 -40 -60 -119 -128 -144 -123 -25
5 -27 65 -4 156 11 42 65 202 121 355 56 152 101 282 101 287 0 11 -37 13 -91
4 l-37 -6 -67 -177 c-112 -292 -201 -472 -272 -552 -49 -54 -76 -67 -100 -48
-21 18 -12 137 18 234 21 69 134 372 184 494 14 35 24 66 21 68 -3 3 -35 2
-73 -3 l-67 -9 -28 -75 c-97 -259 -108 -277 -150 -267 -32 8 -60 62 -88 167
-34 131 -69 185 -133 209 -37 14 -42 14 -104 -9z m103 -35 c26 -41 14 -228
-25 -374 -88 -325 -195 -496 -279 -443 -36 24 -41 135 -12 289 68 356 240 644
316 528z"/>
<path d="M11265 6327 c-124 -49 -222 -174 -301 -385 -59 -161 -144 -306 -229
-394 -65 -68 -95 -63 -95 16 0 58 36 177 139 455 56 150 101 275 101 277 0 3
-29 4 -65 2 l-66 -3 -98 -245 c-99 -245 -99 -245 -110 -371 -13 -137 -11 -150
27 -191 29 -32 67 -36 110 -14 54 29 149 143 217 263 25 42 35 33 35 -30 0
-170 83 -279 199 -263 143 20 288 202 357 449 27 96 39 112 65 81 21 -25 64
-43 89 -37 20 5 22 3 16 -13 -4 -10 -39 -102 -76 -204 -37 -102 -73 -197 -79
-212 l-11 -28 69 0 69 0 12 38 c58 180 259 591 343 701 49 63 75 78 107 61 40
-21 24 -97 -69 -331 -106 -266 -118 -344 -70 -440 20 -41 35 -49 87 -49 72 0
170 131 338 454 42 81 75 149 73 151 -3 2 -36 -55 -74 -127 -186 -349 -274
-466 -320 -428 -10 9 -15 31 -15 73 0 51 10 84 61 211 137 336 155 441 92 516
-32 39 -83 41 -135 5 -51 -34 -142 -160 -213 -292 -32 -62 -61 -110 -63 -109
-2 2 31 81 72 175 84 189 93 216 77 225 -5 4 -38 4 -73 0 l-63 -6 -55 -150
c-60 -164 -84 -201 -127 -196 -38 4 -68 53 -88 145 -23 106 -51 167 -92 203
-29 25 -42 30 -86 29 -29 0 -65 -6 -82 -12z m106 -16 c23 -18 24 -26 24 -128
0 -288 -170 -713 -284 -713 -45 0 -61 31 -61 115 0 182 86 494 175 634 23 38
99 111 114 111 5 0 19 -9 32 -19z"/>
<path d="M12940 5094 c-183 -184 -290 -253 -827 -530 -442 -228 -503 -265
-589 -355 -117 -124 -184 -246 -309 -559 -90 -226 -108 -263 -167 -346 -53
-76 -126 -139 -198 -173 -46 -22 -69 -26 -140 -26 -99 0 -139 13 -193 64 -51
47 -75 98 -127 261 -66 211 -140 338 -249 427 -79 65 -147 93 -263 110 -157
23 -235 10 -395 -65 -70 -33 -168 -72 -218 -87 -93 -29 -95 -34 -20 -50 27 -6
28 -8 12 -20 -15 -11 -8 -15 65 -34 135 -36 270 -83 309 -107 85 -53 124 -135
124 -259 0 -100 -33 -195 -125 -365 -44 -80 -84 -166 -90 -192 -17 -68 -8
-202 18 -269 34 -85 77 -145 177 -244 147 -148 347 -270 626 -385 219 -90 426
-151 756 -224 257 -57 410 -108 598 -200 304 -149 564 -338 980 -710 83 -74
152 -132 154 -130 2 2 -21 41 -51 86 -250 376 -656 686 -1428 1090 l-145 76
-200 -15 c-163 -12 -221 -13 -315 -3 -128 13 -186 30 -340 100 -322 146 -579
360 -680 564 -38 75 -43 94 -47 173 -8 139 6 177 150 387 70 103 86 169 67
288 -29 188 -143 286 -400 344 -148 33 -160 43 -70 58 20 3 81 36 138 72 l102
66 167 -4 c165 -3 169 -4 223 -33 30 -16 82 -57 116 -90 90 -88 141 -199 200
-435 25 -102 57 -207 71 -235 31 -63 94 -129 150 -155 119 -56 300 13 458 174
86 88 141 180 261 438 206 443 259 508 537 666 78 44 288 151 466 236 178 85
355 174 394 197 135 80 262 233 320 384 19 51 46 135 43 135 -1 0 -44 -43 -96
-96z"/>
<path d="M4630 5108 c0 -15 42 -122 65 -168 71 -140 169 -246 295 -320 41 -24
219 -111 395 -192 477 -222 596 -288 722 -402 81 -74 119 -137 296 -485 82
-162 161 -313 177 -335 35 -52 140 -152 205 -196 123 -84 253 -104 353 -54
103 51 147 131 211 379 54 212 109 325 200 416 36 36 87 75 113 88 64 30 164
44 285 39 101 -5 102 -5 195 -58 51 -30 117 -64 146 -76 29 -11 55 -24 58 -27
3 -3 -21 -11 -53 -17 -199 -41 -295 -82 -380 -162 -67 -64 -93 -138 -93 -262
0 -99 18 -142 111 -266 88 -119 108 -172 109 -287 0 -160 -47 -259 -192 -399
-146 -141 -279 -233 -488 -333 -151 -72 -245 -104 -377 -126 -93 -15 -110 -16
-223 -1 -67 9 -162 16 -212 16 -90 0 -90 0 -231 -66 -223 -104 -565 -295 -767
-430 -317 -211 -571 -455 -726 -699 l-38 -60 51 45 c27 25 93 83 145 130 318
286 670 534 960 676 184 90 364 148 643 210 338 74 558 138 769 226 278 115
473 235 614 377 132 132 191 246 192 367 0 87 -21 149 -116 329 -45 88 -90
187 -98 220 -31 116 -13 251 40 314 37 44 139 91 307 141 86 26 142 47 135 51
-8 5 5 13 35 21 26 6 47 15 47 18 0 3 -48 20 -108 38 -59 19 -156 58 -217 89
l-110 55 -181 -4 c-174 -4 -182 -5 -238 -32 -164 -80 -291 -252 -367 -494 -62
-197 -68 -211 -121 -253 -129 -101 -316 -88 -452 32 -97 85 -154 185 -264 461
-84 209 -139 321 -197 403 -48 68 -158 176 -230 225 -26 18 -224 119 -440 226
-534 263 -669 347 -862 529 -51 48 -93 85 -93 83z"/>
<path d="M12946 4621 c-96 -91 -115 -104 -252 -173 -82 -41 -216 -106 -299
-144 -175 -80 -169 -90 27 -50 152 31 308 83 396 132 84 47 177 135 208 197
23 45 44 137 31 137 -4 0 -54 -44 -111 -99z"/>
<path d="M4604 4628 c11 -65 64 -154 124 -208 95 -85 293 -166 508 -209 148
-29 191 -35 179 -23 -5 5 -107 54 -225 108 -315 143 -368 174 -481 282 -53 50
-100 92 -104 92 -4 0 -5 -19 -1 -42z"/>
<path d="M13005 4303 c-99 -86 -179 -126 -495 -249 -186 -72 -386 -184 -328
-184 30 0 352 92 508 145 184 62 254 99 311 164 39 43 54 86 47 133 l-3 26
-40 -35z"/>
<path d="M4610 4253 c0 -101 125 -199 354 -277 86 -30 512 -146 535 -146 20 0
-22 30 -114 82 -90 50 -149 75 -350 149 -169 62 -239 96 -328 161 -90 65 -97
67 -97 31z"/>
<path d="M12929 3938 c-42 -21 -190 -78 -330 -126 -231 -81 -441 -173 -494
-217 -19 -15 -15 -16 60 -10 99 8 354 58 437 86 173 58 326 167 391 278 10 17
17 30 15 29 -2 -1 -37 -19 -79 -40z"/>
<path d="M4682 3899 c56 -100 202 -198 388 -258 103 -33 321 -76 440 -86 l75
-6 -40 26 c-92 60 -262 132 -487 207 -132 43 -276 97 -320 119 l-80 40 24 -42z"/>
<path d="M9634 3835 c-9 -22 4 -35 35 -35 31 0 57 23 46 40 -10 16 -75 12 -81
-5z"/>
<path d="M7982 3808 c-18 -18 -15 -36 7 -43 20 -6 71 10 71 23 0 15 -24 32
-45 32 -12 0 -26 -5 -33 -12z"/>
<path d="M12775 3572 c-49 -19 -172 -56 -273 -83 -195 -52 -327 -98 -444 -155
l-72 -34 81 0 c328 0 677 121 784 271 12 17 20 31 18 33 -2 1 -44 -13 -94 -32z"/>
<path d="M4809 3551 c22 -40 120 -116 197 -152 136 -64 362 -112 579 -123
l110 -6 -71 34 c-124 59 -263 106 -489 166 -121 32 -244 68 -273 79 -64 26
-65 26 -53 2z"/>
<path d="M12265 3219 c-121 -21 -260 -51 -310 -65 -100 -28 -224 -85 -251
-116 -18 -19 -18 -19 6 -14 14 3 68 10 120 16 286 32 611 124 700 199 l25 20
-35 0 c-19 0 -134 -18 -255 -40z"/>
<path d="M5120 3230 c0 -5 46 -32 103 -59 72 -35 136 -57 217 -75 185 -40 389
-77 465 -82 l70 -5 -25 21 c-81 71 -216 111 -575 170 -276 46 -255 43 -255 30z"/>
<path d="M11935 2955 c-319 -29 -435 -51 -419 -76 14 -24 456 3 584 36 31 7
80 25 110 38 l55 25 -45 0 c-25 0 -153 -10 -285 -23z"/>
<path d="M5446 2944 c120 -57 355 -88 609 -82 118 3 127 4 100 16 -55 25 -159
41 -375 57 -118 8 -251 20 -295 25 -44 6 -82 10 -85 9 -3 0 18 -12 46 -25z"/>
<path d="M11181 2785 c78 -42 362 -92 457 -80 30 4 50 11 46 15 -21 21 -390
81 -489 80 l-40 -1 26 -14z"/>
<path d="M6345 2779 c-49 -5 -155 -23 -235 -41 l-145 -33 105 -3 c120 -3 264
17 383 54 42 14 77 27 77 29 0 7 -77 4 -185 -6z"/>
<path d="M6259 2534 c-100 -107 -316 -261 -494 -351 -331 -168 -673 -280
-1290 -422 -213 -49 -167 -52 105 -6 487 82 857 183 1157 315 315 140 465 263
543 446 22 50 15 56 -21 18z"/>
<path d="M11390 2532 c0 -33 75 -145 144 -215 241 -244 804 -449 1596 -582
117 -20 214 -34 216 -32 3 2 -85 25 -193 52 -511 123 -923 259 -1192 395 -192
96 -314 180 -477 327 -45 40 -84 73 -88 73 -3 0 -6 -8 -6 -18z"/>
<path d="M5880 1991 c-57 -30 -476 -210 -590 -253 -319 -121 -597 -201 -995
-288 -132 -29 -249 -56 -260 -61 -32 -15 269 -2 376 15 250 42 575 140 854
258 218 93 577 276 645 328 32 25 16 25 -30 1z"/>
<path d="M11770 1981 c43 -34 339 -197 480 -264 426 -202 839 -326 1195 -357
143 -13 202 -13 189 0 -5 5 -97 30 -204 55 -107 25 -265 61 -350 81 -283 67
-668 208 -1120 411 -80 36 -161 72 -180 80 l-35 14 25 -20z"/>
<path d="M6005 1866 c-356 -148 -828 -413 -1045 -586 -125 -100 -297 -281
-369 -389 -63 -96 -116 -191 -106 -191 4 0 76 68 162 150 354 344 597 521
1243 910 113 67 209 127 215 131 19 18 -22 7 -100 -25z"/>
<path d="M11627 1847 c46 -28 190 -119 320 -201 502 -316 772 -525 1077 -831
l169 -170 -43 80 c-83 154 -149 244 -267 366 -218 225 -487 406 -940 632 -169
85 -374 177 -392 177 -3 0 31 -24 76 -53z"/>
</g>
</svg>
